<mxfile host="app.diagrams.net" agent="Mozilla/5.0 (Windows NT 10.0; Win64; x64) AppleWebKit/537.36 (KHTML, like Gecko) Chrome/137.0.0.0 Safari/537.36" version="27.1.1">
  <diagram name="1 oldal" id="f9xFKlu070n48Wnt_HZU">
    <mxGraphModel dx="1025" dy="451" grid="1" gridSize="10" guides="1" tooltips="1" connect="1" arrows="1" fold="1" page="1" pageScale="1" pageWidth="827" pageHeight="1169" math="0" shadow="0">
      <root>
        <mxCell id="0" />
        <mxCell id="1" parent="0" />
        <mxCell id="DqVqeQWd8ZrM4qaXFoeb-36" value="&lt;b&gt;Felhasznalok&lt;/b&gt;" style="rounded=0;whiteSpace=wrap;html=1;" parent="1" vertex="1">
          <mxGeometry x="170" y="360" width="120" height="60" as="geometry" />
        </mxCell>
        <mxCell id="DqVqeQWd8ZrM4qaXFoeb-37" value="&lt;u&gt;id&lt;/u&gt;" style="ellipse;whiteSpace=wrap;html=1;" parent="1" vertex="1">
          <mxGeometry x="10" y="270" width="90" height="40" as="geometry" />
        </mxCell>
        <mxCell id="DqVqeQWd8ZrM4qaXFoeb-38" value="nev" style="ellipse;whiteSpace=wrap;html=1;" parent="1" vertex="1">
          <mxGeometry x="120" y="270" width="90" height="40" as="geometry" />
        </mxCell>
        <mxCell id="DqVqeQWd8ZrM4qaXFoeb-39" value="email" style="ellipse;whiteSpace=wrap;html=1;" parent="1" vertex="1">
          <mxGeometry x="324" y="270" width="90" height="40" as="geometry" />
        </mxCell>
        <mxCell id="DqVqeQWd8ZrM4qaXFoeb-40" value="jelszo" style="ellipse;whiteSpace=wrap;html=1;" parent="1" vertex="1">
          <mxGeometry x="420" y="270" width="90" height="40" as="geometry" />
        </mxCell>
        <mxCell id="DqVqeQWd8ZrM4qaXFoeb-41" value="szerepkor" style="ellipse;whiteSpace=wrap;html=1;" parent="1" vertex="1">
          <mxGeometry x="220" y="270" width="90" height="40" as="geometry" />
        </mxCell>
        <mxCell id="DqVqeQWd8ZrM4qaXFoeb-43" value="&lt;b&gt;Szolgaltatok&lt;/b&gt;" style="rounded=0;whiteSpace=wrap;html=1;" parent="1" vertex="1">
          <mxGeometry x="160" y="600" width="120" height="60" as="geometry" />
        </mxCell>
        <mxCell id="DqVqeQWd8ZrM4qaXFoeb-44" value="reg_datum" style="ellipse;whiteSpace=wrap;html=1;" parent="1" vertex="1">
          <mxGeometry x="520" y="270" width="90" height="40" as="geometry" />
        </mxCell>
        <mxCell id="DqVqeQWd8ZrM4qaXFoeb-45" value="&lt;u style=&quot;&quot;&gt;id&lt;/u&gt;" style="ellipse;whiteSpace=wrap;html=1;" parent="1" vertex="1">
          <mxGeometry y="470" width="90" height="40" as="geometry" />
        </mxCell>
        <mxCell id="DqVqeQWd8ZrM4qaXFoeb-46" value="&lt;font style=&quot;font-size: 12px;&quot;&gt;Szol._tipusok id&lt;/font&gt;" style="ellipse;whiteSpace=wrap;html=1;" parent="1" vertex="1">
          <mxGeometry y="520" width="90" height="40" as="geometry" />
        </mxCell>
        <mxCell id="DqVqeQWd8ZrM4qaXFoeb-49" value="nev" style="ellipse;whiteSpace=wrap;html=1;" parent="1" vertex="1">
          <mxGeometry y="570" width="90" height="40" as="geometry" />
        </mxCell>
        <mxCell id="DqVqeQWd8ZrM4qaXFoeb-50" value="leiras" style="ellipse;whiteSpace=wrap;html=1;" parent="1" vertex="1">
          <mxGeometry y="620" width="90" height="40" as="geometry" />
        </mxCell>
        <mxCell id="DqVqeQWd8ZrM4qaXFoeb-51" value="aktiv" style="ellipse;whiteSpace=wrap;html=1;" parent="1" vertex="1">
          <mxGeometry y="670" width="90" height="40" as="geometry" />
        </mxCell>
        <mxCell id="DqVqeQWd8ZrM4qaXFoeb-52" value="&lt;b&gt;Foglalasok&lt;/b&gt;" style="rounded=0;whiteSpace=wrap;html=1;" parent="1" vertex="1">
          <mxGeometry x="900" y="360" width="120" height="60" as="geometry" />
        </mxCell>
        <mxCell id="DqVqeQWd8ZrM4qaXFoeb-54" value="&lt;u&gt;id&lt;/u&gt;" style="ellipse;whiteSpace=wrap;html=1;" parent="1" vertex="1">
          <mxGeometry x="645" y="270" width="90" height="40" as="geometry" />
        </mxCell>
        <mxCell id="DqVqeQWd8ZrM4qaXFoeb-55" value="Felhasznalok_id" style="ellipse;whiteSpace=wrap;html=1;" parent="1" vertex="1">
          <mxGeometry x="740" y="270" width="90" height="40" as="geometry" />
        </mxCell>
        <mxCell id="DqVqeQWd8ZrM4qaXFoeb-56" value="Idopontok_id" style="ellipse;whiteSpace=wrap;html=1;" parent="1" vertex="1">
          <mxGeometry x="840" y="270" width="90" height="40" as="geometry" />
        </mxCell>
        <mxCell id="DqVqeQWd8ZrM4qaXFoeb-57" value="foglalasi_ido&lt;span style=&quot;color: rgba(0, 0, 0, 0); font-family: monospace; font-size: 0px; text-align: start; text-wrap-mode: nowrap;&quot;&gt;%3CmxGraphModel%3E%3Croot%3E%3CmxCell%20id%3D%220%22%2F%3E%3CmxCell%20id%3D%221%22%20parent%3D%220%22%2F%3E%3CmxCell%20id%3D%222%22%20value%3D%22leiras%22%20style%3D%22ellipse%3BwhiteSpace%3Dwrap%3Bhtml%3D1%3B%22%20vertex%3D%221%22%20parent%3D%221%22%3E%3CmxGeometry%20x%3D%22490%22%20y%3D%22580%22%20width%3D%2290%22%20height%3D%2240%22%20as%3D%22geometry%22%2F%3E%3C%2FmxCell%3E%3C%2Froot%3E%3C%2FmxGraphModel%3E&lt;/span&gt;&lt;span style=&quot;color: rgba(0, 0, 0, 0); font-family: monospace; font-size: 0px; text-align: start; text-wrap-mode: nowrap;&quot;&gt;%3CmxGraphModel%3E%3Croot%3E%3CmxCell%20id%3D%220%22%2F%3E%3CmxCell%20id%3D%221%22%20parent%3D%220%22%2F%3E%3CmxCell%20id%3D%222%22%20value%3D%22leiras%22%20style%3D%22ellipse%3BwhiteSpace%3Dwrap%3Bhtml%3D1%3B%22%20vertex%3D%221%22%20parent%3D%221%22%3E%3CmxGeometry%20x%3D%22490%22%20y%3D%22580%22%20width%3D%2290%22%20height%3D%2240%22%20as%3D%22geometry%22%2F%3E%3C%2FmxCell%3E%3C%2Froot%3E%3C%2FmxGraphModel%3E&lt;/span&gt;" style="ellipse;whiteSpace=wrap;html=1;" parent="1" vertex="1">
          <mxGeometry x="940" y="270" width="90" height="40" as="geometry" />
        </mxCell>
        <mxCell id="DqVqeQWd8ZrM4qaXFoeb-58" value="allapot" style="ellipse;whiteSpace=wrap;html=1;" parent="1" vertex="1">
          <mxGeometry x="1040" y="270" width="90" height="40" as="geometry" />
        </mxCell>
        <mxCell id="DqVqeQWd8ZrM4qaXFoeb-59" value="megjegyzes" style="ellipse;whiteSpace=wrap;html=1;" parent="1" vertex="1">
          <mxGeometry x="1150" y="270" width="90" height="40" as="geometry" />
        </mxCell>
        <mxCell id="DqVqeQWd8ZrM4qaXFoeb-60" value="" style="endArrow=none;html=1;rounded=0;exitX=0.5;exitY=0;exitDx=0;exitDy=0;entryX=0.5;entryY=1;entryDx=0;entryDy=0;" parent="1" source="DqVqeQWd8ZrM4qaXFoeb-36" target="DqVqeQWd8ZrM4qaXFoeb-37" edge="1">
          <mxGeometry width="50" height="50" relative="1" as="geometry">
            <mxPoint x="10" y="380" as="sourcePoint" />
            <mxPoint x="60" y="330" as="targetPoint" />
          </mxGeometry>
        </mxCell>
        <mxCell id="DqVqeQWd8ZrM4qaXFoeb-61" value="" style="endArrow=none;html=1;rounded=0;entryX=0.5;entryY=1;entryDx=0;entryDy=0;" parent="1" edge="1">
          <mxGeometry width="50" height="50" relative="1" as="geometry">
            <mxPoint x="240" y="360" as="sourcePoint" />
            <mxPoint x="160" y="310" as="targetPoint" />
          </mxGeometry>
        </mxCell>
        <mxCell id="DqVqeQWd8ZrM4qaXFoeb-62" value="" style="endArrow=none;html=1;rounded=0;exitX=0.5;exitY=1;exitDx=0;exitDy=0;" parent="1" source="DqVqeQWd8ZrM4qaXFoeb-41" edge="1">
          <mxGeometry width="50" height="50" relative="1" as="geometry">
            <mxPoint x="230" y="380" as="sourcePoint" />
            <mxPoint x="240" y="360" as="targetPoint" />
          </mxGeometry>
        </mxCell>
        <mxCell id="DqVqeQWd8ZrM4qaXFoeb-63" value="" style="endArrow=none;html=1;rounded=0;entryX=0.5;entryY=1;entryDx=0;entryDy=0;" parent="1" target="DqVqeQWd8ZrM4qaXFoeb-39" edge="1">
          <mxGeometry width="50" height="50" relative="1" as="geometry">
            <mxPoint x="240" y="360" as="sourcePoint" />
            <mxPoint x="400" y="340" as="targetPoint" />
          </mxGeometry>
        </mxCell>
        <mxCell id="DqVqeQWd8ZrM4qaXFoeb-64" value="" style="endArrow=none;html=1;rounded=0;entryX=0.5;entryY=1;entryDx=0;entryDy=0;" parent="1" target="DqVqeQWd8ZrM4qaXFoeb-40" edge="1">
          <mxGeometry width="50" height="50" relative="1" as="geometry">
            <mxPoint x="240" y="360" as="sourcePoint" />
            <mxPoint x="369" y="310" as="targetPoint" />
          </mxGeometry>
        </mxCell>
        <mxCell id="DqVqeQWd8ZrM4qaXFoeb-65" value="" style="endArrow=none;html=1;rounded=0;entryX=0.5;entryY=1;entryDx=0;entryDy=0;" parent="1" target="DqVqeQWd8ZrM4qaXFoeb-44" edge="1">
          <mxGeometry width="50" height="50" relative="1" as="geometry">
            <mxPoint x="240" y="360" as="sourcePoint" />
            <mxPoint x="575" y="330" as="targetPoint" />
          </mxGeometry>
        </mxCell>
        <mxCell id="DqVqeQWd8ZrM4qaXFoeb-68" style="edgeStyle=orthogonalEdgeStyle;rounded=0;orthogonalLoop=1;jettySize=auto;html=1;exitX=1;exitY=0.5;exitDx=0;exitDy=0;" parent="1" source="DqVqeQWd8ZrM4qaXFoeb-67" target="DqVqeQWd8ZrM4qaXFoeb-52" edge="1">
          <mxGeometry relative="1" as="geometry" />
        </mxCell>
        <mxCell id="DqVqeQWd8ZrM4qaXFoeb-69" style="edgeStyle=orthogonalEdgeStyle;rounded=0;orthogonalLoop=1;jettySize=auto;html=1;exitX=1;exitY=0.5;exitDx=0;exitDy=0;" parent="1" source="DqVqeQWd8ZrM4qaXFoeb-67" edge="1">
          <mxGeometry relative="1" as="geometry">
            <mxPoint x="890" y="390" as="targetPoint" />
          </mxGeometry>
        </mxCell>
        <mxCell id="DqVqeQWd8ZrM4qaXFoeb-70" style="edgeStyle=orthogonalEdgeStyle;rounded=0;orthogonalLoop=1;jettySize=auto;html=1;exitX=0;exitY=0.5;exitDx=0;exitDy=0;entryX=1;entryY=0.5;entryDx=0;entryDy=0;" parent="1" source="DqVqeQWd8ZrM4qaXFoeb-67" target="DqVqeQWd8ZrM4qaXFoeb-36" edge="1">
          <mxGeometry relative="1" as="geometry" />
        </mxCell>
        <mxCell id="DqVqeQWd8ZrM4qaXFoeb-67" value="&lt;b&gt;F-F&lt;/b&gt;" style="rhombus;whiteSpace=wrap;html=1;" parent="1" vertex="1">
          <mxGeometry x="600" y="350" width="80" height="80" as="geometry" />
        </mxCell>
        <mxCell id="DqVqeQWd8ZrM4qaXFoeb-71" value="" style="endArrow=none;html=1;rounded=0;entryX=1;entryY=0.5;entryDx=0;entryDy=0;" parent="1" target="DqVqeQWd8ZrM4qaXFoeb-45" edge="1">
          <mxGeometry width="50" height="50" relative="1" as="geometry">
            <mxPoint x="160" y="630" as="sourcePoint" />
            <mxPoint x="290" y="570" as="targetPoint" />
          </mxGeometry>
        </mxCell>
        <mxCell id="DqVqeQWd8ZrM4qaXFoeb-72" value="" style="endArrow=none;html=1;rounded=0;exitX=0.5;exitY=1;exitDx=0;exitDy=0;" parent="1" edge="1">
          <mxGeometry width="50" height="50" relative="1" as="geometry">
            <mxPoint x="90.5" y="540" as="sourcePoint" />
            <mxPoint x="160" y="630" as="targetPoint" />
          </mxGeometry>
        </mxCell>
        <mxCell id="DqVqeQWd8ZrM4qaXFoeb-73" value="" style="endArrow=none;html=1;rounded=0;" parent="1" edge="1">
          <mxGeometry width="50" height="50" relative="1" as="geometry">
            <mxPoint x="160" y="630" as="sourcePoint" />
            <mxPoint x="90" y="590" as="targetPoint" />
          </mxGeometry>
        </mxCell>
        <mxCell id="DqVqeQWd8ZrM4qaXFoeb-74" value="" style="endArrow=none;html=1;rounded=0;entryX=1;entryY=0.5;entryDx=0;entryDy=0;" parent="1" target="DqVqeQWd8ZrM4qaXFoeb-50" edge="1">
          <mxGeometry width="50" height="50" relative="1" as="geometry">
            <mxPoint x="160" y="630" as="sourcePoint" />
            <mxPoint x="220" y="740" as="targetPoint" />
          </mxGeometry>
        </mxCell>
        <mxCell id="DqVqeQWd8ZrM4qaXFoeb-75" value="" style="endArrow=none;html=1;rounded=0;entryX=1;entryY=0.5;entryDx=0;entryDy=0;exitX=0;exitY=0.5;exitDx=0;exitDy=0;" parent="1" source="DqVqeQWd8ZrM4qaXFoeb-43" target="DqVqeQWd8ZrM4qaXFoeb-51" edge="1">
          <mxGeometry width="50" height="50" relative="1" as="geometry">
            <mxPoint x="220" y="660" as="sourcePoint" />
            <mxPoint x="355" y="710" as="targetPoint" />
          </mxGeometry>
        </mxCell>
        <mxCell id="DqVqeQWd8ZrM4qaXFoeb-76" value="&lt;b&gt;Idopontok&lt;/b&gt;" style="rounded=0;whiteSpace=wrap;html=1;" parent="1" vertex="1">
          <mxGeometry x="900" y="600" width="120" height="60" as="geometry" />
        </mxCell>
        <mxCell id="DqVqeQWd8ZrM4qaXFoeb-77" value="&lt;u&gt;id&lt;/u&gt;" style="ellipse;whiteSpace=wrap;html=1;" parent="1" vertex="1">
          <mxGeometry x="690" y="710" width="90" height="40" as="geometry" />
        </mxCell>
        <mxCell id="DqVqeQWd8ZrM4qaXFoeb-78" value="Szolgaltatok_id" style="ellipse;whiteSpace=wrap;html=1;" parent="1" vertex="1">
          <mxGeometry x="790" y="710" width="90" height="40" as="geometry" />
        </mxCell>
        <mxCell id="DqVqeQWd8ZrM4qaXFoeb-79" value="datum" style="ellipse;whiteSpace=wrap;html=1;" parent="1" vertex="1">
          <mxGeometry x="890" y="710" width="90" height="40" as="geometry" />
        </mxCell>
        <mxCell id="DqVqeQWd8ZrM4qaXFoeb-80" value="ido" style="ellipse;whiteSpace=wrap;html=1;" parent="1" vertex="1">
          <mxGeometry x="990" y="710" width="90" height="40" as="geometry" />
        </mxCell>
        <mxCell id="DqVqeQWd8ZrM4qaXFoeb-81" value="foglalhato" style="ellipse;whiteSpace=wrap;html=1;" parent="1" vertex="1">
          <mxGeometry x="1090" y="710" width="90" height="40" as="geometry" />
        </mxCell>
        <mxCell id="DqVqeQWd8ZrM4qaXFoeb-82" value="" style="endArrow=none;html=1;rounded=0;exitX=0.5;exitY=0;exitDx=0;exitDy=0;" parent="1" source="DqVqeQWd8ZrM4qaXFoeb-77" edge="1">
          <mxGeometry width="50" height="50" relative="1" as="geometry">
            <mxPoint x="910" y="710" as="sourcePoint" />
            <mxPoint x="960" y="660" as="targetPoint" />
          </mxGeometry>
        </mxCell>
        <mxCell id="DqVqeQWd8ZrM4qaXFoeb-83" value="" style="endArrow=none;html=1;rounded=0;exitX=0.5;exitY=0;exitDx=0;exitDy=0;" parent="1" edge="1">
          <mxGeometry width="50" height="50" relative="1" as="geometry">
            <mxPoint x="830" y="710" as="sourcePoint" />
            <mxPoint x="960" y="660" as="targetPoint" />
          </mxGeometry>
        </mxCell>
        <mxCell id="DqVqeQWd8ZrM4qaXFoeb-84" value="" style="endArrow=none;html=1;rounded=0;exitX=0.5;exitY=0;exitDx=0;exitDy=0;" parent="1" edge="1">
          <mxGeometry width="50" height="50" relative="1" as="geometry">
            <mxPoint x="930" y="710" as="sourcePoint" />
            <mxPoint x="960" y="660" as="targetPoint" />
          </mxGeometry>
        </mxCell>
        <mxCell id="DqVqeQWd8ZrM4qaXFoeb-85" value="" style="endArrow=none;html=1;rounded=0;exitX=0.5;exitY=0;exitDx=0;exitDy=0;" parent="1" source="DqVqeQWd8ZrM4qaXFoeb-80" edge="1">
          <mxGeometry width="50" height="50" relative="1" as="geometry">
            <mxPoint x="930" y="710" as="sourcePoint" />
            <mxPoint x="960" y="660" as="targetPoint" />
          </mxGeometry>
        </mxCell>
        <mxCell id="DqVqeQWd8ZrM4qaXFoeb-86" value="" style="endArrow=none;html=1;rounded=0;exitX=0.5;exitY=0;exitDx=0;exitDy=0;" parent="1" edge="1">
          <mxGeometry width="50" height="50" relative="1" as="geometry">
            <mxPoint x="1135" y="710" as="sourcePoint" />
            <mxPoint x="960" y="660" as="targetPoint" />
          </mxGeometry>
        </mxCell>
        <mxCell id="DqVqeQWd8ZrM4qaXFoeb-87" value="&lt;b&gt;Szolgaltatas_tipusok&lt;/b&gt;" style="rounded=0;whiteSpace=wrap;html=1;" parent="1" vertex="1">
          <mxGeometry x="150" y="860" width="120" height="60" as="geometry" />
        </mxCell>
        <mxCell id="DqVqeQWd8ZrM4qaXFoeb-88" value="&lt;u&gt;id&lt;/u&gt;" style="ellipse;whiteSpace=wrap;html=1;" parent="1" vertex="1">
          <mxGeometry x="50" y="960" width="90" height="40" as="geometry" />
        </mxCell>
        <mxCell id="DqVqeQWd8ZrM4qaXFoeb-89" value="nev" style="ellipse;whiteSpace=wrap;html=1;" parent="1" vertex="1">
          <mxGeometry x="165" y="960" width="90" height="40" as="geometry" />
        </mxCell>
        <mxCell id="DqVqeQWd8ZrM4qaXFoeb-90" value="leiras" style="ellipse;whiteSpace=wrap;html=1;" parent="1" vertex="1">
          <mxGeometry x="270" y="960" width="90" height="40" as="geometry" />
        </mxCell>
        <mxCell id="DqVqeQWd8ZrM4qaXFoeb-92" style="edgeStyle=orthogonalEdgeStyle;rounded=0;orthogonalLoop=1;jettySize=auto;html=1;exitX=1;exitY=0.5;exitDx=0;exitDy=0;" parent="1" source="DqVqeQWd8ZrM4qaXFoeb-91" target="DqVqeQWd8ZrM4qaXFoeb-76" edge="1">
          <mxGeometry relative="1" as="geometry" />
        </mxCell>
        <mxCell id="DqVqeQWd8ZrM4qaXFoeb-93" style="edgeStyle=orthogonalEdgeStyle;rounded=0;orthogonalLoop=1;jettySize=auto;html=1;exitX=1;exitY=0.5;exitDx=0;exitDy=0;" parent="1" source="DqVqeQWd8ZrM4qaXFoeb-91" edge="1">
          <mxGeometry relative="1" as="geometry">
            <mxPoint x="890" y="630" as="targetPoint" />
          </mxGeometry>
        </mxCell>
        <mxCell id="DqVqeQWd8ZrM4qaXFoeb-94" style="edgeStyle=orthogonalEdgeStyle;rounded=0;orthogonalLoop=1;jettySize=auto;html=1;exitX=0;exitY=0.5;exitDx=0;exitDy=0;entryX=1;entryY=0.5;entryDx=0;entryDy=0;" parent="1" source="DqVqeQWd8ZrM4qaXFoeb-91" target="DqVqeQWd8ZrM4qaXFoeb-43" edge="1">
          <mxGeometry relative="1" as="geometry" />
        </mxCell>
        <mxCell id="DqVqeQWd8ZrM4qaXFoeb-91" value="&lt;b&gt;SZ-I&lt;/b&gt;" style="rhombus;whiteSpace=wrap;html=1;" parent="1" vertex="1">
          <mxGeometry x="565" y="590" width="80" height="80" as="geometry" />
        </mxCell>
        <mxCell id="DqVqeQWd8ZrM4qaXFoeb-96" style="edgeStyle=orthogonalEdgeStyle;rounded=0;orthogonalLoop=1;jettySize=auto;html=1;exitX=0.5;exitY=0;exitDx=0;exitDy=0;entryX=0.5;entryY=1;entryDx=0;entryDy=0;" parent="1" source="DqVqeQWd8ZrM4qaXFoeb-95" target="DqVqeQWd8ZrM4qaXFoeb-52" edge="1">
          <mxGeometry relative="1" as="geometry" />
        </mxCell>
        <mxCell id="DqVqeQWd8ZrM4qaXFoeb-97" style="edgeStyle=orthogonalEdgeStyle;rounded=0;orthogonalLoop=1;jettySize=auto;html=1;exitX=0.5;exitY=1;exitDx=0;exitDy=0;entryX=0.5;entryY=0;entryDx=0;entryDy=0;" parent="1" source="DqVqeQWd8ZrM4qaXFoeb-95" target="DqVqeQWd8ZrM4qaXFoeb-76" edge="1">
          <mxGeometry relative="1" as="geometry" />
        </mxCell>
        <mxCell id="DqVqeQWd8ZrM4qaXFoeb-95" value="&lt;b&gt;I-F&lt;/b&gt;" style="rhombus;whiteSpace=wrap;html=1;" parent="1" vertex="1">
          <mxGeometry x="920" y="470" width="80" height="80" as="geometry" />
        </mxCell>
        <mxCell id="DqVqeQWd8ZrM4qaXFoeb-98" value="" style="endArrow=none;html=1;rounded=0;entryX=0.5;entryY=1;entryDx=0;entryDy=0;" parent="1" target="DqVqeQWd8ZrM4qaXFoeb-87" edge="1">
          <mxGeometry width="50" height="50" relative="1" as="geometry">
            <mxPoint x="90" y="960" as="sourcePoint" />
            <mxPoint x="140" y="910" as="targetPoint" />
          </mxGeometry>
        </mxCell>
        <mxCell id="DqVqeQWd8ZrM4qaXFoeb-99" value="" style="endArrow=none;html=1;rounded=0;entryX=0.5;entryY=1;entryDx=0;entryDy=0;" parent="1" target="DqVqeQWd8ZrM4qaXFoeb-87" edge="1">
          <mxGeometry width="50" height="50" relative="1" as="geometry">
            <mxPoint x="210" y="970" as="sourcePoint" />
            <mxPoint x="330" y="920" as="targetPoint" />
          </mxGeometry>
        </mxCell>
        <mxCell id="DqVqeQWd8ZrM4qaXFoeb-100" value="" style="endArrow=none;html=1;rounded=0;entryX=0.5;entryY=1;entryDx=0;entryDy=0;exitX=0.5;exitY=0;exitDx=0;exitDy=0;" parent="1" source="DqVqeQWd8ZrM4qaXFoeb-90" target="DqVqeQWd8ZrM4qaXFoeb-87" edge="1">
          <mxGeometry width="50" height="50" relative="1" as="geometry">
            <mxPoint x="220" y="950" as="sourcePoint" />
            <mxPoint x="240" y="910" as="targetPoint" />
          </mxGeometry>
        </mxCell>
        <mxCell id="DqVqeQWd8ZrM4qaXFoeb-103" style="edgeStyle=orthogonalEdgeStyle;rounded=0;orthogonalLoop=1;jettySize=auto;html=1;exitX=0.5;exitY=0;exitDx=0;exitDy=0;" parent="1" source="DqVqeQWd8ZrM4qaXFoeb-101" edge="1">
          <mxGeometry relative="1" as="geometry">
            <mxPoint x="210" y="680" as="targetPoint" />
          </mxGeometry>
        </mxCell>
        <mxCell id="DqVqeQWd8ZrM4qaXFoeb-105" style="edgeStyle=orthogonalEdgeStyle;rounded=0;orthogonalLoop=1;jettySize=auto;html=1;exitX=0.5;exitY=1;exitDx=0;exitDy=0;" parent="1" source="DqVqeQWd8ZrM4qaXFoeb-101" target="DqVqeQWd8ZrM4qaXFoeb-87" edge="1">
          <mxGeometry relative="1" as="geometry" />
        </mxCell>
        <mxCell id="DqVqeQWd8ZrM4qaXFoeb-101" value="&lt;b&gt;SZ_T- SZ&lt;/b&gt;" style="rhombus;whiteSpace=wrap;html=1;" parent="1" vertex="1">
          <mxGeometry x="170" y="720" width="80" height="80" as="geometry" />
        </mxCell>
        <mxCell id="DqVqeQWd8ZrM4qaXFoeb-102" style="edgeStyle=orthogonalEdgeStyle;rounded=0;orthogonalLoop=1;jettySize=auto;html=1;exitX=0.5;exitY=0;exitDx=0;exitDy=0;entryX=0.417;entryY=1.05;entryDx=0;entryDy=0;entryPerimeter=0;" parent="1" source="DqVqeQWd8ZrM4qaXFoeb-101" target="DqVqeQWd8ZrM4qaXFoeb-43" edge="1">
          <mxGeometry relative="1" as="geometry" />
        </mxCell>
        <mxCell id="DqVqeQWd8ZrM4qaXFoeb-106" value="" style="endArrow=none;html=1;rounded=0;exitX=0.5;exitY=0;exitDx=0;exitDy=0;" parent="1" source="DqVqeQWd8ZrM4qaXFoeb-52" edge="1">
          <mxGeometry width="50" height="50" relative="1" as="geometry">
            <mxPoint x="640" y="360" as="sourcePoint" />
            <mxPoint x="690" y="310" as="targetPoint" />
          </mxGeometry>
        </mxCell>
        <mxCell id="DqVqeQWd8ZrM4qaXFoeb-107" value="" style="endArrow=none;html=1;rounded=0;exitX=0.5;exitY=0;exitDx=0;exitDy=0;" parent="1" source="DqVqeQWd8ZrM4qaXFoeb-52" edge="1">
          <mxGeometry width="50" height="50" relative="1" as="geometry">
            <mxPoint x="1060" y="360" as="sourcePoint" />
            <mxPoint x="790" y="310" as="targetPoint" />
          </mxGeometry>
        </mxCell>
        <mxCell id="DqVqeQWd8ZrM4qaXFoeb-108" value="" style="endArrow=none;html=1;rounded=0;exitX=0.5;exitY=0;exitDx=0;exitDy=0;" parent="1" source="DqVqeQWd8ZrM4qaXFoeb-52" edge="1">
          <mxGeometry width="50" height="50" relative="1" as="geometry">
            <mxPoint x="1050" y="360" as="sourcePoint" />
            <mxPoint x="880" y="310" as="targetPoint" />
          </mxGeometry>
        </mxCell>
        <mxCell id="DqVqeQWd8ZrM4qaXFoeb-109" value="" style="endArrow=none;html=1;rounded=0;exitX=0.422;exitY=1.05;exitDx=0;exitDy=0;exitPerimeter=0;" parent="1" source="DqVqeQWd8ZrM4qaXFoeb-57" edge="1">
          <mxGeometry width="50" height="50" relative="1" as="geometry">
            <mxPoint x="1030" y="400" as="sourcePoint" />
            <mxPoint x="960" y="360" as="targetPoint" />
          </mxGeometry>
        </mxCell>
        <mxCell id="DqVqeQWd8ZrM4qaXFoeb-110" value="" style="endArrow=none;html=1;rounded=0;exitX=0.5;exitY=1;exitDx=0;exitDy=0;" parent="1" source="DqVqeQWd8ZrM4qaXFoeb-58" edge="1">
          <mxGeometry width="50" height="50" relative="1" as="geometry">
            <mxPoint x="980" y="312" as="sourcePoint" />
            <mxPoint x="962" y="360" as="targetPoint" />
          </mxGeometry>
        </mxCell>
        <mxCell id="DqVqeQWd8ZrM4qaXFoeb-111" value="" style="endArrow=none;html=1;rounded=0;exitX=0.5;exitY=1;exitDx=0;exitDy=0;" parent="1" source="DqVqeQWd8ZrM4qaXFoeb-59" edge="1">
          <mxGeometry width="50" height="50" relative="1" as="geometry">
            <mxPoint x="1080" y="310" as="sourcePoint" />
            <mxPoint x="957" y="360" as="targetPoint" />
          </mxGeometry>
        </mxCell>
        <mxCell id="DqVqeQWd8ZrM4qaXFoeb-112" value="" style="endArrow=none;dashed=1;html=1;dashPattern=1 3;strokeWidth=2;rounded=0;" parent="1" edge="1">
          <mxGeometry width="50" height="50" relative="1" as="geometry">
            <mxPoint x="760" y="300" as="sourcePoint" />
            <mxPoint x="810" y="300" as="targetPoint" />
          </mxGeometry>
        </mxCell>
        <mxCell id="DqVqeQWd8ZrM4qaXFoeb-113" value="" style="endArrow=none;dashed=1;html=1;dashPattern=1 3;strokeWidth=2;rounded=0;" parent="1" edge="1">
          <mxGeometry width="50" height="50" relative="1" as="geometry">
            <mxPoint x="860" y="300" as="sourcePoint" />
            <mxPoint x="910" y="300" as="targetPoint" />
          </mxGeometry>
        </mxCell>
        <mxCell id="DqVqeQWd8ZrM4qaXFoeb-114" value="" style="endArrow=none;dashed=1;html=1;dashPattern=1 3;strokeWidth=2;rounded=0;" parent="1" edge="1">
          <mxGeometry width="50" height="50" relative="1" as="geometry">
            <mxPoint x="20" y="550" as="sourcePoint" />
            <mxPoint x="70" y="550" as="targetPoint" />
          </mxGeometry>
        </mxCell>
        <mxCell id="DqVqeQWd8ZrM4qaXFoeb-117" value="" style="endArrow=none;dashed=1;html=1;dashPattern=1 3;strokeWidth=2;rounded=0;" parent="1" edge="1">
          <mxGeometry width="50" height="50" relative="1" as="geometry">
            <mxPoint x="810" y="740" as="sourcePoint" />
            <mxPoint x="860" y="740" as="targetPoint" />
          </mxGeometry>
        </mxCell>
        <mxCell id="l3W4QmHl1lUgQhojHHPi-1" value="&lt;b&gt;Ertekelesek&lt;/b&gt;" style="rounded=0;whiteSpace=wrap;html=1;" vertex="1" parent="1">
          <mxGeometry x="1260" y="360" width="120" height="60" as="geometry" />
        </mxCell>
        <mxCell id="l3W4QmHl1lUgQhojHHPi-2" value="&lt;u&gt;id&lt;/u&gt;" style="ellipse;whiteSpace=wrap;html=1;" vertex="1" parent="1">
          <mxGeometry x="1440" y="260" width="90" height="40" as="geometry" />
        </mxCell>
        <mxCell id="l3W4QmHl1lUgQhojHHPi-3" value="Foglalasok_id" style="ellipse;whiteSpace=wrap;html=1;" vertex="1" parent="1">
          <mxGeometry x="1440" y="310" width="90" height="40" as="geometry" />
        </mxCell>
        <mxCell id="l3W4QmHl1lUgQhojHHPi-4" value="ertekeles" style="ellipse;whiteSpace=wrap;html=1;" vertex="1" parent="1">
          <mxGeometry x="1440" y="360" width="90" height="40" as="geometry" />
        </mxCell>
        <mxCell id="l3W4QmHl1lUgQhojHHPi-5" value="velemeny" style="ellipse;whiteSpace=wrap;html=1;" vertex="1" parent="1">
          <mxGeometry x="1440" y="410" width="90" height="40" as="geometry" />
        </mxCell>
        <mxCell id="l3W4QmHl1lUgQhojHHPi-6" value="datum" style="ellipse;whiteSpace=wrap;html=1;" vertex="1" parent="1">
          <mxGeometry x="1440" y="460" width="90" height="40" as="geometry" />
        </mxCell>
        <mxCell id="l3W4QmHl1lUgQhojHHPi-7" value="" style="endArrow=none;html=1;rounded=0;exitX=1;exitY=0.5;exitDx=0;exitDy=0;" edge="1" parent="1" source="l3W4QmHl1lUgQhojHHPi-1">
          <mxGeometry width="50" height="50" relative="1" as="geometry">
            <mxPoint x="1390" y="330" as="sourcePoint" />
            <mxPoint x="1440" y="280" as="targetPoint" />
          </mxGeometry>
        </mxCell>
        <mxCell id="l3W4QmHl1lUgQhojHHPi-8" value="" style="endArrow=none;html=1;rounded=0;entryX=0;entryY=0.5;entryDx=0;entryDy=0;" edge="1" parent="1" target="l3W4QmHl1lUgQhojHHPi-3">
          <mxGeometry width="50" height="50" relative="1" as="geometry">
            <mxPoint x="1380" y="390" as="sourcePoint" />
            <mxPoint x="1430" y="340" as="targetPoint" />
          </mxGeometry>
        </mxCell>
        <mxCell id="l3W4QmHl1lUgQhojHHPi-9" value="" style="endArrow=none;html=1;rounded=0;entryX=0;entryY=0.5;entryDx=0;entryDy=0;" edge="1" parent="1" target="l3W4QmHl1lUgQhojHHPi-5">
          <mxGeometry width="50" height="50" relative="1" as="geometry">
            <mxPoint x="1380" y="390" as="sourcePoint" />
            <mxPoint x="1440" y="340" as="targetPoint" />
          </mxGeometry>
        </mxCell>
        <mxCell id="l3W4QmHl1lUgQhojHHPi-10" value="" style="endArrow=none;html=1;rounded=0;entryX=0;entryY=0.5;entryDx=0;entryDy=0;" edge="1" parent="1" target="l3W4QmHl1lUgQhojHHPi-4">
          <mxGeometry width="50" height="50" relative="1" as="geometry">
            <mxPoint x="1380" y="390" as="sourcePoint" />
            <mxPoint x="1440" y="340" as="targetPoint" />
          </mxGeometry>
        </mxCell>
        <mxCell id="l3W4QmHl1lUgQhojHHPi-11" value="" style="endArrow=none;html=1;rounded=0;entryX=0;entryY=0.5;entryDx=0;entryDy=0;" edge="1" parent="1" target="l3W4QmHl1lUgQhojHHPi-6">
          <mxGeometry width="50" height="50" relative="1" as="geometry">
            <mxPoint x="1380" y="390" as="sourcePoint" />
            <mxPoint x="1440" y="460" as="targetPoint" />
          </mxGeometry>
        </mxCell>
        <mxCell id="l3W4QmHl1lUgQhojHHPi-13" style="edgeStyle=orthogonalEdgeStyle;rounded=0;orthogonalLoop=1;jettySize=auto;html=1;exitX=0;exitY=0.5;exitDx=0;exitDy=0;" edge="1" parent="1" source="l3W4QmHl1lUgQhojHHPi-12" target="DqVqeQWd8ZrM4qaXFoeb-52">
          <mxGeometry relative="1" as="geometry" />
        </mxCell>
        <mxCell id="l3W4QmHl1lUgQhojHHPi-14" style="edgeStyle=orthogonalEdgeStyle;rounded=0;orthogonalLoop=1;jettySize=auto;html=1;exitX=1;exitY=0.5;exitDx=0;exitDy=0;entryX=0;entryY=0.5;entryDx=0;entryDy=0;" edge="1" parent="1" source="l3W4QmHl1lUgQhojHHPi-12" target="l3W4QmHl1lUgQhojHHPi-1">
          <mxGeometry relative="1" as="geometry" />
        </mxCell>
        <mxCell id="l3W4QmHl1lUgQhojHHPi-12" value="&lt;b&gt;F-E&lt;/b&gt;" style="rhombus;whiteSpace=wrap;html=1;" vertex="1" parent="1">
          <mxGeometry x="1110" y="350" width="80" height="80" as="geometry" />
        </mxCell>
        <mxCell id="l3W4QmHl1lUgQhojHHPi-15" value="" style="endArrow=none;dashed=1;html=1;dashPattern=1 3;strokeWidth=2;rounded=0;" edge="1" parent="1">
          <mxGeometry width="50" height="50" relative="1" as="geometry">
            <mxPoint x="1460" y="340" as="sourcePoint" />
            <mxPoint x="1510" y="340" as="targetPoint" />
          </mxGeometry>
        </mxCell>
      </root>
    </mxGraphModel>
  </diagram>
</mxfile>
